# xmcd
#
# Track frame offsets:
#	150
#	18167
#	50362
#
# Disc length: 927 seconds
#
# Revision: 1
# Processed by: cddbd v1.4PL0 Copyright (c) Steve Scherf et al.
# Submitted via: audiograbber 1.80
#
DISCID=18039d03
DTITLE=Blaque - 808
DYEAR=1900
DGENRE=
TTITLE0=808 (Edit with rap)
TTITLE1=808 (Extended remix)
TTITLE2=808
EXTD=
EXTT0=
EXTT1=
EXTT2=
PLAYORDER=
